<svg version="1.1" id="Layer_1" xmlns="http://www.w3.org/2000/svg" xmlns:xlink="http://www.w3.org/1999/xlink" x="0px" y="0px"
	 width="100%" viewBox="0 0 1181 171" enable-background="new 0 0 1181 171" xml:space="preserve">
<path fill="#FEFFFF" opacity="1.000000" stroke="none" 
	d="
M144.000000,1.000000 
	C233.689316,1.000000 323.378632,1.000000 413.558411,1.315681 
	C414.698212,2.695574 415.347565,3.759788 415.655304,4.978494 
	C411.930389,6.689100 410.951416,9.400563 410.956268,13.001039 
	C411.022858,62.318066 411.027405,111.635254 410.954926,160.952255 
	C410.948853,165.084991 412.378265,167.884583 416.607239,168.061188 
	C424.439423,168.388275 432.303864,168.635315 440.125763,168.278336 
	C445.489166,168.033539 447.227631,164.347275 447.080750,159.105820 
	C446.805420,149.283432 447.001648,139.447845 447.001709,129.617737 
	C447.001740,120.513649 447.001709,111.409569 447.001709,102.010933 
	C458.964508,102.010933 470.438446,101.739746 481.889313,102.135735 
	C486.927612,102.309967 491.837769,104.290192 494.925079,108.665054 
	C507.122070,125.948563 519.044983,143.426392 531.331848,160.644974 
	C535.273987,166.169327 540.615845,169.593689 548.041199,169.086777 
	C554.343079,168.656586 560.706909,169.193222 567.023987,168.893997 
	C569.283325,168.786972 572.818115,168.017242 573.385742,166.596848 
	C574.136902,164.717407 573.173157,161.473602 571.863708,159.555313 
	C559.753784,141.815308 547.401367,124.240982 535.140991,106.603508 
	C531.734619,101.703156 532.810242,99.140045 538.527527,96.938622 
	C544.499329,94.639175 550.485413,92.257637 556.147644,89.303146 
	C563.391479,85.523407 568.205750,79.679749 571.186340,71.743912 
	C575.298645,60.794926 574.822021,49.754051 572.732788,38.887691 
	C571.162842,30.722042 567.097534,23.110546 559.691467,18.244085 
	C554.596436,14.896179 549.241760,11.943515 543.945862,8.509195 
	C540.611450,5.240081 545.559937,3.544934 545.000000,1.000000 
	C680.022644,1.000000 815.045227,1.000000 950.533936,1.392738 
	C951.361816,3.200336 951.723572,4.615195 952.038574,6.456525 
	C951.660889,8.442022 951.042114,10.000746 951.040466,11.560118 
	C950.987732,61.359634 950.988220,111.159218 951.002808,160.958786 
	C951.004395,166.268845 953.262207,168.772232 958.499695,168.943497 
	C964.156555,169.128494 969.903381,169.588806 975.466675,168.846817 
	C982.491150,167.909958 984.101868,167.132645 984.067505,160.003235 
	C983.917664,128.858398 983.966614,97.712318 984.064697,66.567078 
	C984.073425,63.777401 984.952393,60.990459 985.691162,56.651894 
	C994.664429,66.198418 1002.487732,74.687897 1010.494324,83.000824 
	C1022.698181,95.671471 1035.066406,108.183784 1047.281616,120.843544 
	C1050.689941,124.375862 1053.805664,128.190613 1056.922607,132.169052 
	C1055.454102,133.913269 1055.366943,134.710190 1057.224121,136.282959 
	C1062.632935,140.863800 1067.638672,145.920578 1073.039673,151.014328 
	C1073.182617,150.708847 1073.604492,149.807480 1074.344360,149.037064 
	C1075.785278,150.551819 1076.777954,152.071060 1078.052856,153.296539 
	C1084.200806,159.206299 1088.827026,167.337799 1098.288696,168.622528 
	C1103.185791,169.287460 1108.224976,168.989288 1113.199707,168.979401 
	C1120.222656,168.965454 1123.987061,165.257950 1123.988159,158.287888 
	C1123.996094,109.233253 1123.966675,60.178612 1124.079590,10.831713 
	C1124.374634,9.429130 1124.920898,8.203094 1124.626343,7.232122 
	C1123.975586,5.086620 1122.901489,3.069480 1122.000000,0.999991 
	C1141.958130,1.000000 1161.916382,1.000000 1182.000000,1.000000 
	C1182.000000,49.689243 1182.000000,98.378586 1181.646240,147.419937 
	C1179.525513,139.472076 1171.486206,134.367722 1165.231323,133.900635 
	C1152.515869,132.951096 1147.036377,139.609024 1144.520386,147.051086 
	C1141.101196,157.164810 1146.273926,166.343765 1158.000000,172.000000 
	C814.644043,172.000000 471.288055,172.000000 127.431244,171.518799 
	C126.788223,170.411499 126.646042,169.785416 126.912926,169.085266 
	C143.376572,167.793259 158.889114,164.221039 173.610428,157.692413 
	C181.628922,154.136383 185.435715,148.046768 185.148972,138.746170 
	C184.620560,121.606262 185.004990,104.438499 184.989502,87.282364 
	C184.983444,80.562874 181.437805,77.007027 174.734940,77.002586 
	C154.747162,76.989342 134.755203,77.248398 114.772949,76.916191 
	C99.694176,76.665504 98.501122,78.382820 98.966339,92.676956 
	C99.184250,99.372620 101.719772,101.996872 108.597458,102.000084 
	C120.590126,102.005684 132.582977,101.962410 144.575394,102.019409 
	C150.086761,102.045601 152.977600,104.998329 152.992813,110.408379 
	C153.011536,117.070862 152.862030,123.737343 153.056747,130.394150 
	C153.138947,133.204163 152.091690,134.319565 149.464798,135.060898 
	C128.366623,141.014984 107.175743,145.675262 85.107079,140.977112 
	C74.081429,138.629883 63.636501,134.786407 55.451714,126.800888 
	C40.164227,111.885551 35.383511,93.593903 40.117531,73.004372 
	C44.010876,56.071163 53.775570,43.213139 70.067947,36.648663 
	C83.834106,31.102043 98.306801,30.315504 113.238953,31.741446 
	C129.780487,33.321079 145.122147,37.818424 159.814148,45.269447 
	C163.925430,47.354473 169.190689,45.278854 171.349533,41.190823 
	C173.232025,37.626099 175.064728,34.033722 176.849091,30.418842 
	C179.861298,24.316513 177.413208,18.377705 170.863846,15.955480 
	C161.906601,12.642727 152.926651,9.391362 143.969513,5.687639 
	C143.988388,3.841062 143.994202,2.420531 144.000000,1.000000 
M759.991455,76.997849 
	C759.991455,76.997849 759.926147,76.956192 760.694702,76.906693 
	C762.848816,77.302719 765.007996,77.673096 767.155029,78.104607 
	C768.391785,78.353180 769.608704,78.700577 770.985718,79.929535 
	C770.990234,106.420822 770.992981,132.912109 771.000305,159.403397 
	C771.002197,166.206436 773.590759,168.886536 780.407837,168.983078 
	C785.738342,169.058578 791.071411,169.050446 796.402222,168.988464 
	C802.957703,168.912247 805.976440,165.999191 805.981079,159.500900 
	C806.015808,110.850464 806.015320,62.199982 805.980896,13.549546 
	C805.976868,7.841205 802.173462,4.068933 796.489441,4.012370 
	C788.826355,3.936112 781.160156,3.889695 773.498901,4.028753 
	C768.121765,4.126350 763.717590,6.306598 760.985474,11.146476 
	C751.966797,27.122902 742.959290,43.105705 734.000488,59.115757 
	C727.166870,71.328072 720.490173,83.628799 713.585449,95.800468 
	C710.984314,100.385818 708.456299,100.312431 705.997498,95.785240 
	C690.956238,68.090416 675.941040,40.381393 660.965332,12.651059 
	C657.900269,6.975594 653.365967,3.950697 646.840271,3.986276 
	C639.676208,4.025335 632.511719,3.980337 625.347412,3.992693 
	C617.455750,4.006303 614.039795,7.378376 614.019165,15.249914 
	C613.986450,27.745481 613.996765,40.241169 613.995972,52.736809 
	C613.993774,87.725288 613.930908,122.713982 614.040955,157.702118 
	C614.068054,166.302338 616.688293,168.738525 625.388123,168.981613 
	C629.050720,169.083969 632.718567,169.003876 636.384033,168.996826 
	C643.667542,168.982819 646.995667,165.679779 646.997070,158.430954 
	C647.003052,126.441513 647.000977,94.452072 647.001831,62.462627 
	C647.001892,60.797199 647.001892,59.131771 647.001892,56.336887 
	C657.729553,76.200645 667.847229,94.825111 677.858765,113.506439 
	C686.297180,129.252350 694.582336,145.080383 703.001038,160.836975 
	C705.454041,165.427994 711.474304,165.568695 713.971802,161.039246 
	C722.052979,146.383514 729.975769,131.640549 738.021057,116.964928 
	C744.251953,105.598900 750.575012,94.283371 757.630432,82.898216 
	C758.405334,80.908623 759.180237,78.919029 759.991455,76.997849 
M300.746765,4.191624 
	C297.087921,4.126352 293.403473,3.759173 289.776154,4.066257 
	C284.274323,4.532037 279.552704,6.406403 276.942322,12.000240 
	C270.756958,25.254990 264.333313,38.398354 258.035187,51.600681 
	C247.441101,73.808357 236.870163,96.027077 226.288544,118.240700 
	C219.595261,132.291687 212.846634,146.316696 206.234573,160.405792 
	C203.851730,165.483200 206.071472,168.822632 211.821457,168.970810 
	C216.981781,169.103775 222.164627,169.263916 227.307190,168.936142 
	C232.624619,168.597214 237.504059,167.236404 239.458420,161.179947 
	C240.240631,158.755905 242.187500,156.697311 242.909241,154.266068 
	C245.195328,146.565308 250.734863,144.875015 257.933197,144.935974 
	C279.086151,145.115158 300.261200,145.542023 321.388031,144.777893 
	C332.464569,144.377274 339.726776,147.289886 343.235962,158.389145 
	C344.878784,163.585297 348.664581,168.258545 354.542419,168.672791 
	C363.653503,169.314896 372.853699,169.241592 381.985168,168.812897 
	C386.479492,168.601898 387.980103,164.737030 385.852417,160.564087 
	C378.102722,145.364868 370.269867,130.208008 362.521851,115.007935 
	C351.328644,93.049194 340.143158,71.086349 329.030945,49.086567 
	C322.880798,36.910542 317.200562,24.482540 310.617706,12.549191 
	C308.803925,9.261162 304.506775,7.343043 300.746765,4.191624 
M859.001587,76.500000 
	C859.001465,103.997093 858.993835,131.494186 859.007324,158.991272 
	C859.010132,164.652756 860.913025,168.020691 866.264282,168.553497 
	C873.668579,169.290741 881.284180,169.441208 888.650085,168.540939 
	C894.491699,167.826950 896.115906,164.406250 896.096741,158.739716 
	C895.934814,110.911949 896.006409,63.083385 896.007324,15.255062 
	C896.007385,14.255195 896.065063,13.250160 895.985840,12.256315 
	C895.548401,6.773450 892.629822,4.028739 887.176025,4.002280 
	C881.343506,3.973982 875.510620,3.989852 869.677917,3.997963 
	C862.283508,4.008246 858.993530,7.248435 858.994141,14.506639 
	C858.995972,34.837761 858.999023,55.168880 859.001587,76.500000 
z"/>
<path fill="#050807" opacity="1.000000" stroke="none" 
	d="
M143.956436,6.113684 
	C152.926651,9.391362 161.906601,12.642727 170.863846,15.955480 
	C177.413208,18.377705 179.861298,24.316513 176.849091,30.418842 
	C175.064728,34.033722 173.232025,37.626099 171.349533,41.190823 
	C169.190689,45.278854 163.925430,47.354473 159.814148,45.269447 
	C145.122147,37.818424 129.780487,33.321079 113.238953,31.741446 
	C98.306801,30.315504 83.834106,31.102043 70.067947,36.648663 
	C53.775570,43.213139 44.010876,56.071163 40.117531,73.004372 
	C35.383511,93.593903 40.164227,111.885551 55.451714,126.800888 
	C63.636501,134.786407 74.081429,138.629883 85.107079,140.977112 
	C107.175743,145.675262 128.366623,141.014984 149.464798,135.060898 
	C152.091690,134.319565 153.138947,133.204163 153.056747,130.394150 
	C152.862030,123.737343 153.011536,117.070862 152.992813,110.408379 
	C152.977600,104.998329 150.086761,102.045601 144.575394,102.019409 
	C132.582977,101.962410 120.590126,102.005684 108.597458,102.000084 
	C101.719772,101.996872 99.184250,99.372620 98.966339,92.676956 
	C98.501122,78.382820 99.694176,76.665504 114.772949,76.916191 
	C134.755203,77.248398 154.747162,76.989342 174.734940,77.002586 
	C181.437805,77.007027 184.983444,80.562874 184.989502,87.282364 
	C185.004990,104.438499 184.620560,121.606262 185.148972,138.746170 
	C185.435715,148.046768 181.628922,154.136383 173.610428,157.692413 
	C158.889114,164.221039 143.376572,167.793259 126.457321,169.043854 
	C118.294403,169.716156 111.003586,170.745804 103.695793,170.884964 
	C96.486679,171.022263 89.260406,170.258392 81.838303,169.526703 
	C69.929985,168.394806 58.859001,165.035736 48.133289,160.564911 
	C31.210396,153.510895 18.240276,141.875702 9.083286,125.561043 
	C6.806584,117.717453 4.512354,110.280327 2.404733,102.790688 
	C1.693217,100.262253 1.454690,97.600708 1.000000,95.000000 
	C1.000000,90.310745 1.000000,85.621490 1.402742,80.322739 
	C2.883418,73.171814 3.961352,66.630394 5.359827,59.955132 
	C6.068266,58.548828 6.456167,57.276363 6.925064,55.650078 
	C7.368818,54.209156 7.731575,53.122047 8.433839,51.882477 
	C13.840575,38.179035 22.382082,27.154314 34.272427,19.135235 
	C41.381702,14.340604 49.390839,10.880255 57.391792,6.900510 
	C61.620396,5.992148 65.417290,4.824833 69.293266,4.056387 
	C75.166634,2.891943 81.095001,2.004900 87.000000,1.000000 
	C95.020897,1.000000 103.041801,1.000000 111.701920,1.399481 
	C115.923103,2.056994 119.536797,2.098743 123.080276,2.618914 
	C130.059601,3.643458 136.999954,4.933475 143.956436,6.113684 
z"/>
<path fill="#FEFFFE" opacity="1.000000" stroke="none" 
	d="
M991.000000,1.000000 
	C1023.354248,1.000000 1055.708496,1.000000 1088.535156,1.358015 
	C1090.036743,3.155450 1091.065918,4.594868 1091.940674,6.399530 
	C1091.189697,9.061301 1090.082397,11.355854 1090.073486,13.654659 
	C1089.956299,43.952370 1090.010498,74.250702 1089.952148,104.548744 
	C1089.948608,106.410599 1089.364502,108.271339 1089.056885,110.095024 
	C1081.932251,103.364464 1075.443237,97.234283 1069.087158,90.788986 
	C1067.934326,87.737595 1067.211548,84.479080 1065.252563,82.367203 
	C1060.245728,76.969681 1054.688110,72.082993 1049.075195,66.729080 
	C1048.814819,67.287964 1048.394531,68.189766 1047.656982,68.962685 
	C1028.544434,48.930889 1009.749146,29.027981 991.077271,8.813078 
	C991.132568,6.335644 991.064453,4.170205 991.051636,2.143323 
	C991.193604,2.330849 991.280396,2.379820 991.367126,2.428798 
	C991.246399,2.284630 991.125610,2.140454 991.004028,1.747205 
	C991.003113,1.498133 991.000000,1.000000 991.000000,1.000000 
z"/>
<path fill="#FEFEFE" opacity="1.000000" stroke="none" 
	d="
M9.138734,125.946976 
	C18.240276,141.875702 31.210396,153.510895 48.133289,160.564911 
	C58.859001,165.035736 69.929985,168.394806 81.825104,169.878235 
	C82.010185,171.061981 82.005089,171.530991 82.000000,172.000000 
	C55.087135,172.000000 28.174271,172.000000 1.000000,172.000000 
	C1.000000,153.979950 1.000000,135.958633 1.398059,117.482605 
	C3.155931,119.973419 4.515743,122.918938 6.016118,126.168938 
	C6.647628,126.124054 7.893181,126.035515 9.138734,125.946976 
z"/>
<path fill="#FEFEFE" opacity="1.000000" stroke="none" 
	d="
M6.844068,56.003899 
	C6.456167,57.276363 6.068266,58.548828 5.135840,59.667019 
	C3.394210,59.341831 2.197105,59.170914 1.000000,59.000000 
	C1.000000,39.746056 1.000000,20.492109 1.000000,1.000000 
	C17.020107,1.000000 33.041397,1.000000 49.535751,1.363545 
	C50.628803,2.707311 51.248795,3.687533 51.868782,4.667756 
	C52.912521,3.445172 53.956261,2.222586 55.000000,1.000000 
	C56.066669,1.000000 57.133339,1.000000 58.599167,1.368227 
	C58.330711,3.431019 57.663101,5.125583 56.995491,6.820148 
	C49.390839,10.880255 41.381702,14.340604 34.272427,19.135235 
	C22.382082,27.154314 13.840575,38.179035 8.067895,51.904694 
	C6.296551,52.913166 5.230659,53.746960 4.164767,54.580753 
	C5.057868,55.055134 5.950968,55.529514 6.844068,56.003899 
z"/>
<path fill="#080808" opacity="1.000000" stroke="none" 
	d="
M1158.449951,172.000000 
	C1146.273926,166.343765 1141.101196,157.164810 1144.520386,147.051086 
	C1147.036377,139.609024 1152.515869,132.951096 1165.231323,133.900635 
	C1171.486206,134.367722 1179.525513,139.472076 1181.646240,147.885971 
	C1182.000000,150.700012 1182.000000,153.400024 1181.651855,156.565491 
	C1180.691528,158.700684 1180.191650,160.422501 1179.446655,162.030670 
	C1176.960571,167.397766 1171.913574,169.628601 1167.000000,172.000000 
	C1164.299927,172.000000 1161.599976,172.000000 1158.449951,172.000000 
M1154.870728,165.281204 
	C1162.542847,169.404602 1167.117188,169.100113 1171.450684,164.185120 
	C1164.666260,165.033691 1165.799194,156.187103 1160.013916,154.918213 
	C1160.013916,158.088806 1160.013916,160.983566 1160.013916,163.927063 
	C1158.046875,163.927063 1156.559692,163.927063 1154.997559,163.001358 
	C1154.997559,155.738647 1154.997559,148.475952 1154.997559,141.011658 
	C1158.897461,141.011658 1162.246948,140.699722 1165.509399,141.099091 
	C1168.793213,141.501083 1171.832031,142.793228 1171.976929,146.943909 
	C1172.100586,150.479477 1171.727905,153.733292 1167.012817,154.463837 
	C1169.112305,157.582001 1171.037964,160.441925 1173.010620,163.371902 
	C1177.445190,159.135544 1177.539062,154.128204 1176.912964,149.245728 
	C1175.992310,142.065689 1167.934570,136.805191 1161.357422,137.780319 
	C1153.257202,138.981247 1149.624268,144.062302 1148.392822,151.296127 
	C1147.444702,156.866348 1149.907593,161.366547 1154.870728,165.281204 
M1164.891846,150.641525 
	C1165.573975,149.403549 1166.256104,148.165573 1166.938232,146.927597 
	C1164.786011,146.127777 1162.633789,145.327957 1160.307739,144.463516 
	C1160.307739,147.458710 1160.307739,149.199905 1160.307739,150.993942 
	C1161.768066,150.993942 1162.926025,150.993942 1164.891846,150.641525 
z"/>
<path fill="#FAFDFD" opacity="1.000000" stroke="none" 
	d="
M415.996887,4.824001 
	C415.347565,3.759788 414.698212,2.695574 414.024445,1.315681 
	C457.354218,1.000000 500.708466,1.000000 544.531372,1.000000 
	C545.559937,3.544934 540.611450,5.240081 543.548706,8.587882 
	C531.671265,7.314569 520.161011,4.501006 508.590851,4.227877 
	C479.486206,3.540822 450.354431,3.986455 421.233643,4.035858 
	C419.487610,4.038820 417.742462,4.549547 415.996887,4.824001 
z"/>
<path fill="#F9FCFB" opacity="1.000000" stroke="none" 
	d="
M990.531372,1.000000 
	C991.000000,1.000000 991.003113,1.498133 991.001587,1.749068 
	C991.000000,2.000003 990.996399,2.004765 990.996338,2.004766 
	C991.064453,4.170205 991.132568,6.335644 990.741821,8.669289 
	C988.466980,7.879194 986.748108,6.600699 984.818970,6.015595 
	C973.929077,2.712829 962.995483,2.864852 952.085327,6.030050 
	C951.723572,4.615195 951.361816,3.200336 951.000000,1.392738 
	C964.020874,1.000000 977.041809,1.000000 990.531372,1.000000 
z"/>
<path fill="#F8FBFB" opacity="1.000000" stroke="none" 
	d="
M1092.095093,6.034288 
	C1091.065918,4.594868 1090.036743,3.155450 1089.003784,1.358015 
	C1099.687622,1.000000 1110.375122,1.000000 1121.531372,0.999991 
	C1122.901489,3.069480 1123.975586,5.086620 1124.626343,7.232122 
	C1124.920898,8.203094 1124.374634,9.429130 1123.753052,10.663448 
	C1121.072388,8.528305 1118.907349,4.416596 1116.614014,4.343789 
	C1108.458130,4.084849 1100.027344,2.399660 1092.095093,6.034288 
z"/>
<path fill="#FBFBFB" opacity="1.000000" stroke="none" 
	d="
M1167.472656,172.000000 
	C1171.913574,169.628601 1176.960571,167.397766 1179.446655,162.030670 
	C1180.191650,160.422501 1180.691528,158.700684 1181.651855,157.015472 
	C1182.000000,161.924530 1182.000000,166.849045 1182.000000,172.000000 
	C1177.316650,172.000000 1172.630981,172.000000 1167.472656,172.000000 
z"/>
<path fill="#F8FBFB" opacity="1.000000" stroke="none" 
	d="
M9.083286,125.561043 
	C7.893181,126.035515 6.647628,126.124054 6.016118,126.168938 
	C4.515743,122.918938 3.155931,119.973419 1.398059,117.013947 
	C1.000000,109.979050 1.000000,102.958107 1.000000,95.468582 
	C1.454690,97.600708 1.693217,100.262253 2.404733,102.790688 
	C4.512354,110.280327 6.806584,117.717453 9.083286,125.561043 
z"/>
<path fill="#F8FBFB" opacity="1.000000" stroke="none" 
	d="
M143.969513,5.687638 
	C136.999954,4.933475 130.059601,3.643458 123.080276,2.618914 
	C119.536797,2.098743 115.923103,2.056994 112.170578,1.399481 
	C122.354225,1.000000 132.708450,1.000000 143.531342,1.000000 
	C143.994202,2.420531 143.988388,3.841062 143.969513,5.687638 
z"/>
<path fill="#F8FAFA" opacity="1.000000" stroke="none" 
	d="
M82.468658,172.000000 
	C82.005089,171.530991 82.010185,171.061981 82.028465,170.241425 
	C89.260406,170.258392 96.486679,171.022263 103.695793,170.884964 
	C111.003586,170.745804 118.294403,169.716156 126.048264,169.117920 
	C126.646042,169.785416 126.788223,170.411499 126.965202,171.518799 
	C112.312439,172.000000 97.624878,172.000000 82.468658,172.000000 
z"/>
<path fill="#F7FBFA" opacity="1.000000" stroke="none" 
	d="
M57.391792,6.900510 
	C57.663101,5.125583 58.330711,3.431019 58.999161,1.368227 
	C68.020897,1.000000 77.041786,1.000000 86.531342,1.000000 
	C81.095001,2.004900 75.166634,2.891943 69.293266,4.056387 
	C65.417290,4.824833 61.620396,5.992148 57.391792,6.900510 
z"/>
<path fill="#F8FBFB" opacity="1.000000" stroke="none" 
	d="
M1.000000,59.468529 
	C2.197105,59.170914 3.394210,59.341831 4.815301,59.800858 
	C3.961352,66.630394 2.883418,73.171814 1.402742,79.856613 
	C1.000000,73.312355 1.000000,66.624710 1.000000,59.468529 
z"/>
<path fill="#F7FBFA" opacity="1.000000" stroke="none" 
	d="
M54.583336,1.000000 
	C53.956261,2.222586 52.912521,3.445172 51.868782,4.667756 
	C51.248795,3.687533 50.628803,2.707311 50.004410,1.363545 
	C51.388889,1.000000 52.777779,1.000000 54.583336,1.000000 
z"/>
<path fill="#050807" opacity="1.000000" stroke="none" 
	d="
M756.857117,82.945412 
	C750.575012,94.283371 744.251953,105.598900 738.021057,116.964928 
	C729.975769,131.640549 722.052979,146.383514 713.971802,161.039246 
	C711.474304,165.568695 705.454041,165.427994 703.001038,160.836975 
	C694.582336,145.080383 686.297180,129.252350 677.858765,113.506439 
	C667.847229,94.825111 657.729553,76.200645 647.001892,56.336887 
	C647.001892,59.131771 647.001892,60.797199 647.001831,62.462627 
	C647.000977,94.452072 647.003052,126.441513 646.997070,158.430954 
	C646.995667,165.679779 643.667542,168.982819 636.384033,168.996826 
	C632.718567,169.003876 629.050720,169.083969 625.388123,168.981613 
	C616.688293,168.738525 614.068054,166.302338 614.040955,157.702118 
	C613.930908,122.713982 613.993774,87.725288 613.995972,52.736809 
	C613.996765,40.241169 613.986450,27.745481 614.019165,15.249914 
	C614.039795,7.378376 617.455750,4.006303 625.347412,3.992693 
	C632.511719,3.980337 639.676208,4.025335 646.840271,3.986276 
	C653.365967,3.950697 657.900269,6.975594 660.965332,12.651059 
	C675.941040,40.381393 690.956238,68.090416 705.997498,95.785240 
	C708.456299,100.312431 710.984314,100.385818 713.585449,95.800468 
	C720.490173,83.628799 727.166870,71.328072 734.000488,59.115757 
	C742.959290,43.105705 751.966797,27.122902 760.985474,11.146476 
	C763.717590,6.306598 768.121765,4.126350 773.498901,4.028753 
	C781.160156,3.889695 788.826355,3.936112 796.489441,4.012370 
	C802.173462,4.068933 805.976868,7.841205 805.980896,13.549546 
	C806.015320,62.199982 806.015808,110.850464 805.981079,159.500900 
	C805.976440,165.999191 802.957703,168.912247 796.402222,168.988464 
	C791.071411,169.050446 785.738342,169.058578 780.407837,168.983078 
	C773.590759,168.886536 771.002197,166.206436 771.000305,159.403397 
	C770.992981,132.912109 770.990234,106.420822 770.988708,79.003487 
	C770.991699,71.227699 770.991699,64.377968 770.991699,57.528229 
	C770.729004,57.455795 770.466309,57.383366 770.203613,57.310932 
	C766.777771,63.859348 763.351929,70.407768 759.926147,76.956192 
	C759.926147,76.956192 759.991455,76.997849 759.644409,77.099213 
	C758.484009,79.115517 757.670532,81.030464 756.857117,82.945412 
z"/>
<path fill="#040807" opacity="1.000000" stroke="none" 
	d="
M1091.940674,6.399531 
	C1100.027344,2.399660 1108.458130,4.084849 1116.614014,4.343789 
	C1118.907349,4.416596 1121.072388,8.528305 1123.622803,10.955711 
	C1123.966675,60.178612 1123.996094,109.233253 1123.988159,158.287888 
	C1123.987061,165.257950 1120.222656,168.965454 1113.199707,168.979401 
	C1108.224976,168.989288 1103.185791,169.287460 1098.288696,168.622528 
	C1088.827026,167.337799 1084.200806,159.206299 1078.052856,153.296539 
	C1076.777954,152.071060 1075.785278,150.551819 1074.233154,148.723022 
	C1068.221069,142.810638 1062.638306,137.343216 1057.055542,131.875793 
	C1053.805664,128.190613 1050.689941,124.375862 1047.281616,120.843544 
	C1035.066406,108.183784 1022.698181,95.671471 1010.494324,83.000824 
	C1002.487732,74.687897 994.664429,66.198418 985.691162,56.651894 
	C984.952393,60.990459 984.073425,63.777401 984.064697,66.567078 
	C983.966614,97.712318 983.917664,128.858398 984.067505,160.003235 
	C984.101868,167.132645 982.491150,167.909958 975.466675,168.846817 
	C969.903381,169.588806 964.156555,169.128494 958.499695,168.943497 
	C953.262207,168.772232 951.004395,166.268845 951.002808,160.958786 
	C950.988220,111.159218 950.987732,61.359634 951.040466,11.560118 
	C951.042114,10.000746 951.660889,8.442022 952.038635,6.456519 
	C962.995483,2.864852 973.929077,2.712829 984.818970,6.015595 
	C986.748108,6.600699 988.466980,7.879194 990.618408,8.981283 
	C1009.749146,29.027981 1028.544434,48.930889 1047.768555,69.276512 
	C1055.116455,76.847496 1062.035278,83.975777 1068.954102,91.104080 
	C1075.443237,97.234283 1081.932251,103.364464 1089.056885,110.095024 
	C1089.364502,108.271339 1089.948608,106.410599 1089.952148,104.548744 
	C1090.010498,74.250702 1089.956299,43.952370 1090.073486,13.654659 
	C1090.082397,11.355854 1091.189697,9.061301 1091.940674,6.399531 
z"/>
<path fill="#050807" opacity="1.000000" stroke="none" 
	d="
M415.655304,4.978493 
	C417.742462,4.549547 419.487610,4.038820 421.233643,4.035858 
	C450.354431,3.986455 479.486206,3.540822 508.590851,4.227877 
	C520.161011,4.501006 531.671265,7.314569 543.605957,8.892879 
	C549.241760,11.943515 554.596436,14.896179 559.691467,18.244085 
	C567.097534,23.110546 571.162842,30.722042 572.732788,38.887691 
	C574.822021,49.754051 575.298645,60.794926 571.186340,71.743912 
	C568.205750,79.679749 563.391479,85.523407 556.147644,89.303146 
	C550.485413,92.257637 544.499329,94.639175 538.527527,96.938622 
	C532.810242,99.140045 531.734619,101.703156 535.140991,106.603508 
	C547.401367,124.240982 559.753784,141.815308 571.863708,159.555313 
	C573.173157,161.473602 574.136902,164.717407 573.385742,166.596848 
	C572.818115,168.017242 569.283325,168.786972 567.023987,168.893997 
	C560.706909,169.193222 554.343079,168.656586 548.041199,169.086777 
	C540.615845,169.593689 535.273987,166.169327 531.331848,160.644974 
	C519.044983,143.426392 507.122070,125.948563 494.925079,108.665054 
	C491.837769,104.290192 486.927612,102.309967 481.889313,102.135735 
	C470.438446,101.739746 458.964508,102.010933 447.001709,102.010933 
	C447.001709,111.409569 447.001740,120.513649 447.001709,129.617737 
	C447.001648,139.447845 446.805420,149.283432 447.080750,159.105820 
	C447.227631,164.347275 445.489166,168.033539 440.125763,168.278336 
	C432.303864,168.635315 424.439423,168.388275 416.607239,168.061188 
	C412.378265,167.884583 410.948853,165.084991 410.954926,160.952255 
	C411.027405,111.635254 411.022858,62.318066 410.956268,13.001039 
	C410.951416,9.400563 411.930389,6.689100 415.655304,4.978493 
M514.323975,76.000031 
	C517.283081,75.307030 520.346558,74.900345 523.181335,73.866539 
	C531.197266,70.943253 536.852356,65.521545 537.856934,56.806026 
	C538.662231,49.818790 536.291382,43.485767 530.483643,39.101158 
	C523.502258,33.830517 515.055542,32.375114 506.723877,32.137306 
	C489.580536,31.647989 472.413544,31.953764 455.256470,31.997786 
	C450.067963,32.011097 447.087311,34.983635 447.038635,40.243046 
	C446.949158,49.903587 446.937134,59.566216 447.035065,69.226532 
	C447.081360,73.795212 450.164459,76.987381 454.713959,76.934311 
	C474.285858,76.706017 493.855896,76.320068 514.323975,76.000031 
z"/>
<path fill="#050807" opacity="1.000000" stroke="none" 
	d="
M301.047913,4.493985 
	C304.506775,7.343043 308.803925,9.261162 310.617706,12.549191 
	C317.200562,24.482540 322.880798,36.910542 329.030945,49.086567 
	C340.143158,71.086349 351.328644,93.049194 362.521851,115.007935 
	C370.269867,130.208008 378.102722,145.364868 385.852417,160.564087 
	C387.980103,164.737030 386.479492,168.601898 381.985168,168.812897 
	C372.853699,169.241592 363.653503,169.314896 354.542419,168.672791 
	C348.664581,168.258545 344.878784,163.585297 343.235962,158.389145 
	C339.726776,147.289886 332.464569,144.377274 321.388031,144.777893 
	C300.261200,145.542023 279.086151,145.115158 257.933197,144.935974 
	C250.734863,144.875015 245.195328,146.565308 242.909241,154.266068 
	C242.187500,156.697311 240.240631,158.755905 239.458420,161.179947 
	C237.504059,167.236404 232.624619,168.597214 227.307190,168.936142 
	C222.164627,169.263916 216.981781,169.103775 211.821457,168.970810 
	C206.071472,168.822632 203.851730,165.483200 206.234573,160.405792 
	C212.846634,146.316696 219.595261,132.291687 226.288544,118.240700 
	C236.870163,96.027077 247.441101,73.808357 258.035187,51.600681 
	C264.333313,38.398354 270.756958,25.254990 276.942322,12.000240 
	C279.552704,6.406403 284.274323,4.532037 289.776154,4.066257 
	C293.403473,3.759173 297.087921,4.126352 301.047913,4.493985 
M267.046051,100.627510 
	C264.969177,105.305969 262.864410,109.972305 260.824310,114.666733 
	C259.200500,118.403114 260.565399,120.938988 264.502136,120.958862 
	C282.140717,121.047943 299.780334,121.043114 317.418976,120.952057 
	C321.450378,120.931244 322.902954,118.444824 321.245270,114.710449 
	C312.477417,94.958420 303.692963,75.213440 294.784210,55.524872 
	C294.147583,54.117924 292.470215,53.181889 291.276764,52.026901 
	C290.236908,53.171452 288.841309,54.148563 288.211700,55.486225 
	C281.242279,70.292778 274.391663,85.155266 267.046051,100.627510 
z"/>
<path fill="#040707" opacity="1.000000" stroke="none" 
	d="
M859.001587,76.000000 
	C858.999023,55.168880 858.995972,34.837761 858.994141,14.506639 
	C858.993530,7.248435 862.283508,4.008246 869.677917,3.997963 
	C875.510620,3.989852 881.343506,3.973982 887.176025,4.002280 
	C892.629822,4.028739 895.548401,6.773450 895.985840,12.256315 
	C896.065063,13.250160 896.007385,14.255195 896.007324,15.255062 
	C896.006409,63.083385 895.934814,110.911949 896.096741,158.739716 
	C896.115906,164.406250 894.491699,167.826950 888.650085,168.540939 
	C881.284180,169.441208 873.668579,169.290741 866.264282,168.553497 
	C860.913025,168.020691 859.010132,164.652756 859.007324,158.991272 
	C858.993835,131.494186 859.001465,103.997093 859.001587,76.000000 
z"/>
<path fill="#F9FCFC" opacity="1.000000" stroke="none" 
	d="
M760.310425,76.931442 
	C763.351929,70.407768 766.777771,63.859348 770.203613,57.310932 
	C770.466309,57.383366 770.729004,57.455795 770.991699,57.528229 
	C770.991699,64.377968 770.991699,71.227699 770.913086,78.540466 
	C769.608704,78.700577 768.391785,78.353180 767.155029,78.104607 
	C765.007996,77.673096 762.848816,77.302719 760.310425,76.931442 
M766.818420,73.118233 
	C766.608826,72.578552 766.399170,72.038879 766.189453,71.499191 
	C765.810547,72.072083 765.431580,72.644974 765.052673,73.217873 
	C765.553101,73.374321 766.053528,73.530769 766.818420,73.118233 
z"/>
<path fill="#F1F4F3" opacity="1.000000" stroke="none" 
	d="
M1056.922607,132.169037 
	C1062.638306,137.343216 1068.221069,142.810638 1073.915039,148.592102 
	C1073.604492,149.807480 1073.182617,150.708847 1073.039673,151.014328 
	C1067.638672,145.920578 1062.632935,140.863800 1057.224121,136.282959 
	C1055.366943,134.710190 1055.454102,133.913269 1056.922607,132.169037 
z"/>
<path fill="#F9FCFC" opacity="1.000000" stroke="none" 
	d="
M757.243774,82.921814 
	C757.670532,81.030464 758.484009,79.115517 759.626282,77.065002 
	C759.180237,78.919029 758.405334,80.908623 757.243774,82.921814 
z"/>
<path fill="#F8FBFB" opacity="1.000000" stroke="none" 
	d="
M6.925065,55.650078 
	C5.950968,55.529514 5.057868,55.055134 4.164767,54.580753 
	C5.230659,53.746960 6.296551,52.913166 7.728387,52.057159 
	C7.731575,53.122047 7.368818,54.209156 6.925065,55.650078 
z"/>
<path fill="#F2F4F4" opacity="1.000000" stroke="none" 
	d="
M1069.087158,90.788956 
	C1062.035278,83.975777 1055.116455,76.847496 1048.085938,69.405396 
	C1048.394531,68.189766 1048.814819,67.287964 1049.075195,66.729080 
	C1054.688110,72.082993 1060.245728,76.969681 1065.252563,82.367203 
	C1067.211548,84.479080 1067.934326,87.737595 1069.087158,90.788956 
z"/>
<path fill="#F9FCFB" opacity="1.000000" stroke="none" 
	d="
M991.002441,1.998140 
	C991.125610,2.140454 991.246399,2.284630 991.367126,2.428798 
	C991.280396,2.379820 991.193604,2.330849 991.051636,2.143322 
	C990.996399,2.004765 991.000000,2.000003 991.002441,1.998140 
z"/>
<path fill="#FBFBFB" opacity="1.000000" stroke="none" 
	d="
M1154.398682,164.738190 
	C1149.907593,161.366547 1147.444702,156.866348 1148.392822,151.296127 
	C1149.624268,144.062302 1153.257202,138.981247 1161.357422,137.780319 
	C1167.934570,136.805191 1175.992310,142.065689 1176.912964,149.245728 
	C1177.539062,154.128204 1177.445190,159.135544 1173.010620,163.371902 
	C1171.037964,160.441925 1169.112305,157.582001 1167.012817,154.463837 
	C1171.727905,153.733292 1172.100586,150.479477 1171.976929,146.943909 
	C1171.832031,142.793228 1168.793213,141.501083 1165.509399,141.099091 
	C1162.246948,140.699722 1158.897461,141.011658 1154.997559,141.011658 
	C1154.997559,148.475952 1154.997559,155.738647 1154.859131,163.660767 
	C1154.613403,164.459503 1154.506104,164.598846 1154.398682,164.738190 
z"/>
<path fill="#FBFBFB" opacity="1.000000" stroke="none" 
	d="
M1154.896484,164.123627 
	C1156.559692,163.927063 1158.046875,163.927063 1160.013916,163.927063 
	C1160.013916,160.983566 1160.013916,158.088806 1160.013916,154.918213 
	C1165.799194,156.187103 1164.666260,165.033691 1171.453857,164.181122 
	C1167.117188,169.100113 1162.542847,169.404602 1154.634766,165.009705 
	C1154.506104,164.598846 1154.613403,164.459503 1154.896484,164.123627 
z"/>
<path fill="#F8FBFB" opacity="1.000000" stroke="none" 
	d="
M1164.487915,150.817734 
	C1162.926025,150.993942 1161.768066,150.993942 1160.307739,150.993942 
	C1160.307739,149.199905 1160.307739,147.458710 1160.307739,144.463516 
	C1162.633789,145.327957 1164.786011,146.127777 1166.938232,146.927597 
	C1166.256104,148.165573 1165.573975,149.403549 1164.487915,150.817734 
z"/>
<path fill="#FEFEFE" opacity="1.000000" stroke="none" 
	d="
M513.875305,75.995781 
	C493.855896,76.320068 474.285858,76.706017 454.713959,76.934311 
	C450.164459,76.987381 447.081360,73.795212 447.035065,69.226532 
	C446.937134,59.566216 446.949158,49.903587 447.038635,40.243046 
	C447.087311,34.983635 450.067963,32.011097 455.256470,31.997786 
	C472.413544,31.953764 489.580536,31.647989 506.723877,32.137306 
	C515.055542,32.375114 523.502258,33.830517 530.483643,39.101158 
	C536.291382,43.485767 538.662231,49.818790 537.856934,56.806026 
	C536.852356,65.521545 531.197266,70.943253 523.181335,73.866539 
	C520.346558,74.900345 517.283081,75.307030 513.875305,75.995781 
z"/>
<path fill="#FEFEFE" opacity="1.000000" stroke="none" 
	d="
M267.277496,100.315063 
	C274.391663,85.155266 281.242279,70.292778 288.211700,55.486225 
	C288.841309,54.148563 290.236908,53.171452 291.276764,52.026901 
	C292.470215,53.181889 294.147583,54.117924 294.784210,55.524872 
	C303.692963,75.213440 312.477417,94.958420 321.245270,114.710449 
	C322.902954,118.444824 321.450378,120.931244 317.418976,120.952057 
	C299.780334,121.043114 282.140717,121.047943 264.502136,120.958862 
	C260.565399,120.938988 259.200500,118.403114 260.824310,114.666733 
	C262.864410,109.972305 264.969177,105.305969 267.277496,100.315063 
z"/>
<path fill="#FEFFFF" opacity="1.000000" stroke="none" 
	d="
M766.686157,73.402725 
	C766.053528,73.530769 765.553101,73.374321 765.052612,73.217865 
	C765.431580,72.644974 765.810547,72.072083 766.189453,71.499199 
	C766.399170,72.038879 766.608826,72.578552 766.686157,73.402725 
z"/>
</svg>