<?xml version="1.0" encoding="UTF-8" standalone="no"?>
<svg
   xmlns:dc="http://purl.org/dc/elements/1.1/"
   xmlns:cc="http://creativecommons.org/ns#"
   xmlns:rdf="http://www.w3.org/1999/02/22-rdf-syntax-ns#"
   xmlns:svg="http://www.w3.org/2000/svg"
   xmlns="http://www.w3.org/2000/svg"
   viewBox="0 0 783.53333 203.16"
   height="203.16"
   width="783.53333"
   xml:space="preserve"
   id="svg2"
   version="1.1"><metadata
     id="metadata8"><rdf:RDF><cc:Work
         rdf:about=""><dc:format>image/svg+xml</dc:format><dc:type
           rdf:resource="http://purl.org/dc/dcmitype/StillImage" /></cc:Work></rdf:RDF></metadata><defs
     id="defs6" /><g
     transform="matrix(1.3333333,0,0,-1.3333333,0,203.16)"
     id="g10"><g
       transform="scale(0.1)"
       id="g12"><path
         id="path14"
         style="fill:#ffffff;fill-opacity:1;fill-rule:nonzero;stroke:none"
         d="M 516.25,652.164 258.121,910.305 0.00390625,652.164 89.3672,563.484 h 0.043 l 168.7108,170.219 168.731,-170.219 89.398,88.68" /><path
         id="path16"
         style="fill:#ffffff;fill-opacity:1;fill-rule:nonzero;stroke:none"
         d="m 614.016,38.9219 h -0.047 L 652.875,0.0117188 h 0.109 L 872.145,218.602 1091.31,0.0117188 1130.21,38.9219 872.145,296.5 614.016,38.9219" /><path
         id="path18"
         style="fill:#ffffff;fill-opacity:1;fill-rule:nonzero;stroke:none"
         d="m 754.012,277.66 69.226,68.102 -258.683,257.644 v -0.011 L 307.262,345.762 h -0.254 L 375.98,277.66 564.555,465.59 v 0.012 L 753.777,277.66 h 0.235" /><path
         id="path20"
         style="fill:#ffffff;fill-opacity:1;fill-rule:nonzero;stroke:none"
         d="m 872.094,1004.52 v 0 l 258.116,260.34 -258.87,258.84 h -0.004 L 613.969,1265.24 872.094,1004.52" /><path
         id="path22"
         style="fill:#ffffff;fill-opacity:1;fill-rule:nonzero;stroke:none"
         d="M 436.43,832.672 564.563,960.906 693.824,831.5 823.238,958.789 822.133,959.898 564.563,1217.43 307.016,958.789 435.262,831.5 l 1.168,1.172" /><path
         id="path24"
         style="fill:#ffffff;fill-opacity:1;fill-rule:nonzero;stroke:none"
         d="m 1049.19,831.5 1.17,1.172 128.13,128.234 129.26,-129.406 129.42,127.289 -1.11,1.109 L 1178.49,1217.43 920.941,958.789 1049.19,831.5" /><path
         id="path26"
         style="fill:#ffffff;fill-opacity:1;fill-rule:nonzero;stroke:none"
         d="m 614.5,652.164 89.371,-88.68 h 0.043 l 168.711,170.219 168.725,-170.219 89.4,88.68 L 872.625,910.305 614.5,652.164" /><path
         id="path28"
         style="fill:#ffffff;fill-opacity:1;fill-rule:nonzero;stroke:none"
         d="M 2305.33,522.191 2119.38,906.648 H 1950.51 V 398.719 h 124.31 v 356.73 l 170.88,-356.73 h 119.27 l 170.87,356.73 v -356.73 h 123.63 V 906.648 H 2491.28 L 2305.33,522.191" /><path
         id="path30"
         style="fill:#ffffff;fill-opacity:1;fill-rule:nonzero;stroke:none"
         d="M 5293.2,906.648 H 4777.89 V 796.113 h 195.34 V 398.719 h 124.3 v 397.394 h 195.67 v 110.535" /><path
         id="path32"
         style="fill:#ffffff;fill-opacity:1;fill-rule:nonzero;stroke:none"
         d="m 4203.46,398.719 h 470.75 v 108.312 h -343.09 v 99.074 h 320.97 v 108.317 h -320.97 v 83.91 h 343.09 V 906.648 H 4203.46 V 398.719" /><path
         id="path34"
         style="fill:#ffffff;fill-opacity:1;fill-rule:nonzero;stroke:none"
         d="m 5480.08,593.906 84.42,187.059 83.77,-187.059 z m 153.11,312.742 h -138.71 l -240.9,-507.929 h 138.72 l 43.22,96.121 h 256.64 l 43.22,-96.121 h 138.71 l -240.9,507.929" /><path
         id="path36"
         style="fill:#ffffff;fill-opacity:1;fill-rule:nonzero;stroke:none"
         d="m 1227.94,652.164 89.36,-88.68 h 0.05 l 168.71,170.219 168.73,-170.219 89.39,88.68 -258.12,258.141 -258.12,-258.141" /><path
         id="path38"
         style="fill:#ffffff;fill-opacity:1;fill-rule:nonzero;stroke:none"
         d="M 3949.08,556.203 3638.16,906.648 H 3503.14 V 398.719 h 124.3 v 348.972 l 310.58,-348.972 h 134.7 V 906.648 H 3949.08 V 556.203" /><path
         id="path40"
         style="fill:#ffffff;fill-opacity:1;fill-rule:nonzero;stroke:none"
         d="M 1178.49,603.395 921.199,345.762 h -0.254 l 68.965,-68.102 188.58,187.93 v 0.012 L 1367.71,277.66 h 0.24 l 69.22,68.102 -258.68,257.644 v -0.011" /><path
         id="path42"
         style="fill:#ffffff;fill-opacity:1;fill-rule:nonzero;stroke:none"
         d="m 3264.97,584.703 c -6.39,-19.937 -17.73,-37.855 -34.01,-53.75 -16.28,-15.902 -38.5,-28.793 -66.65,-38.691 -43.25,-15.223 -88.37,-17.223 -133.15,-8.024 -22.15,4.563 -41.3,10.813 -57.46,18.774 -16.16,7.937 -29.71,17.25 -40.65,27.941 -10.95,10.684 -19.68,22.219 -26.18,34.602 -6.52,12.367 -11.14,25.332 -13.88,38.886 -2.73,13.543 -4.11,26.969 -4.11,40.262 0,13.027 1.38,26.25 4.11,39.68 2.74,13.41 7.36,26.316 13.88,38.691 6.5,12.371 15.23,23.973 26.18,34.793 10.94,10.813 24.49,20.258 40.65,28.336 16.16,8.074 35.31,14.395 57.46,18.957 44.22,9.113 90.34,7.059 133.15,-8.012 28.15,-9.906 50.37,-22.804 66.65,-38.699 16.28,-15.898 27.62,-33.808 34.01,-53.742 6.38,-19.941 9.58,-39.941 9.58,-60.004 0,-20.066 -3.2,-40.062 -9.58,-60 z m 44.95,259.246 c -72.55,54.582 -171.96,71.442 -260.79,65.086 -68.4,-4.898 -139.6,-23.586 -195.26,-65.086 -30.06,-22.426 -53.23,-50.34 -69.49,-83.726 -16.27,-33.399 -24.4,-71.903 -24.4,-115.52 0,-43.625 8.13,-82.133 24.4,-115.523 16.26,-33.399 39.43,-61.309 69.49,-83.731 71.23,-53.121 168.26,-70.578 255.4,-65.39 70.02,4.171 143.86,22.679 200.65,65.39 29.81,22.422 52.73,50.332 68.75,83.731 16.02,33.39 24.03,71.898 24.03,115.523 0,43.617 -8.01,82.121 -24.03,115.52 -16.02,33.386 -38.94,61.3 -68.75,83.726" /><g
         transform="scale(10)"
         id="g44"><text
           id="text48"
           style="font-variant:normal;font-weight:normal;font-size:13px;font-family:FuturaPT;-inkscape-font-specification:FuturaPT-Book;writing-mode:lr-tb;fill:#ffffff;fill-opacity:1;fill-rule:nonzero;stroke:none"
           transform="matrix(1,0,0,-1,577.711,81.5535)"><tspan
             id="tspan46"
             y="0"
             x="0">®</tspan></text>
</g></g></g></svg>